/* XPM */
static char *result[] = {
/* columns rows colors chars-per-pixel */
"32 32 5 1 ",
"  c black",
". c #323131",
"X c #525050",
"o c gray65",
"O c #F7F3F3",
/* pixels */
"                                ",
"                                ",
"            ........            ",
"          ............          ",
"        ................        ",
"       ..................       ",
"      .......XXXXXX.......      ",
"      ......XXXXXXXX......      ",
"     ......XXXXXXXXXX......     ",
"    ......XXXXXXXXXXXX......    ",
"    ......XXXooooooXXX......    ",
"    .....XXXXooooooXXXX.....    ",
"   .....XXXXooooooooXXXX.....   ",
"   .....XXXXooOOOOooXXXX.....   ",
"   .....XXXXooOOOOooXXXX.....   ",
"   .....XXXXooOOOOooXXXX.....   ",
"   .....XXXXooOOOOooXXXX.....   ",
"   .....XXXXooOOOOooXXXX.....   ",
"   .....XXXXooooooooXXXX.....   ",
"    .....XXXooooooooXXX.....    ",
"    .....XXXXooooooXXXX.....    ",
"    .....XXXXXXXXXXXXXX.....    ",
"     .....XXXXXXXXXXXX.....     ",
"      .....XXXXXXXXXX.....      ",
"      .......XXXXXX.......      ",
"       ..................       ",
"        ................        ",
"          ............          ",
"            ........            ",
"                                ",
"                                ",
"                                "
};
