/* XPM */
static char *result[] = {
/* columns rows colors chars-per-pixel */
"32 32 4 1 ",
"  c black",
". c #080F52",
"X c #021AFA",
"o c #06CAFA",
/* pixels */
" XXXXXXXXXXXXXXXXXXXXXXXXXXXXXX ",
"XXXXXXXXXXXXXXXXXXXXXXXXXXXXXXXX",
"XXXooooooooooooooooooooooooooXXX",
"XXooo......................oooXX",
"XXoo........................ooXX",
"XXo..........................oXX",
"XXo..........................oXX",
"XXo..........................oXX",
"XXo..........................oXX",
"XXo..........................oXX",
"XXo..........................oXX",
"XXo..........................oXX",
"XXo..........................oXX",
"XXo..........................oXX",
"XXo..........................oXX",
"XXo..........................oXX",
"XXo..........................oXX",
"XXo..........................oXX",
"XXo..........................oXX",
"XXo..........................oXX",
"XXo..........................oXX",
"XXo..........................oXX",
"XXo..........................oXX",
"XXo..........................oXX",
"XXo..........................oXX",
"XXo..........................oXX",
"XXo..........................oXX",
"XXoo........................ooXX",
"XXooo......................oooXX",
"XXXooooooooooooooooooooooooooXXX",
"XXXXXXXXXXXXXXXXXXXXXXXXXXXXXXXX",
" XXXXXXXXXXXXXXXXXXXXXXXXXXXXXX "
};
